<?xml version="1.0" encoding="utf-8"?><svg viewBox="0 0 502.66 502.66" xmlns="http://www.w3.org/2000/svg" xmlns:xlink="http://www.w3.org/1999/xlink"><style>:root>svg{display:none}:root>svg:target{display:block}</style><svg viewBox="0 0 502.664 502.664" id="icon" xmlns="http://www.w3.org/2000/svg"><path d="M153.821 358.226L0 274.337v-46.463l153.821-83.414v54.574L46.636 250.523l107.185 53.431v54.272zm26.273 29.358L282.103 115.08h32.227L212.084 387.584h-31.99zm168.749-29.358v-54.272l107.164-52.999-107.164-52.59v-53.927l153.821 83.522v46.183l-153.821 84.083z"/></svg><svg viewBox="0 0 224 23" id="logo" xmlns="http://www.w3.org/2000/svg"><path d="M5.47 12.49L11.35 22h5.94l-6.57-9.51H5.47zM.22 1v21h5.07V1H.22zM3.4 5.29h4.11c.68 0 1.26.11 1.74.33.5.22.88.54 1.14.96.26.4.39.89.39 1.47s-.13 1.08-.39 1.5c-.26.4-.64.71-1.14.93-.48.2-1.06.3-1.74.3H3.4v3.93h4.47c1.8 0 3.3-.29 4.5-.87 1.2-.58 2.11-1.38 2.73-2.4.62-1.04.93-2.23.93-3.57 0-1.36-.31-2.55-.93-3.57-.62-1.04-1.53-1.85-2.73-2.43-1.2-.58-2.7-.87-4.5-.87H3.4v4.29zm20.414 6.21c0-1.24.24-2.33.72-3.27.5-.96 1.19-1.71 2.07-2.25.9-.54 1.95-.81 3.15-.81 1.22 0 2.27.27 3.15.81.88.54 1.56 1.29 2.04 2.25.48.94.72 2.03.72 3.27 0 1.24-.25 2.34-.75 3.3-.48.94-1.17 1.68-2.07 2.22-.88.54-1.91.81-3.09.81-1.2 0-2.25-.27-3.15-.81a5.68 5.68 0 01-2.07-2.22c-.48-.96-.72-2.06-.72-3.3zm-5.37 0c0 1.62.27 3.11.81 4.47.56 1.36 1.34 2.54 2.34 3.54 1.02 1 2.22 1.78 3.6 2.34 1.38.54 2.9.81 4.56.81 1.64 0 3.15-.27 4.53-.81 1.38-.56 2.57-1.34 3.57-2.34 1.02-1 1.8-2.18 2.34-3.54.56-1.36.84-2.85.84-4.47 0-1.62-.28-3.1-.84-4.44-.56-1.34-1.35-2.5-2.37-3.48a10.45 10.45 0 00-3.6-2.25c-1.36-.54-2.85-.81-4.47-.81-1.6 0-3.09.27-4.47.81a10.45 10.45 0 00-3.6 2.25c-1.02.98-1.82 2.14-2.4 3.48-.56 1.34-.84 2.82-.84 4.44zm29.619.06h3.93c1.46 0 2.74-.2 3.84-.6 1.12-.42 2-1.02 2.64-1.8.66-.78.99-1.72.99-2.82 0-1.2-.33-2.19-.99-2.97-.64-.8-1.52-1.39-2.64-1.77-1.1-.4-2.38-.6-3.84-.6h-7.71v21h8.22c1.66 0 3.1-.2 4.32-.6 1.22-.42 2.16-1.06 2.82-1.92.68-.86 1.02-1.99 1.02-3.39 0-1.06-.24-1.96-.72-2.7a5.515 5.515 0 00-1.86-1.86c-.78-.5-1.65-.86-2.61-1.08-.96-.22-1.95-.33-2.97-.33h-4.44v2.76h3.87c.5 0 .95.05 1.35.15.42.08.79.22 1.11.42.32.2.57.46.75.78.18.32.27.7.27 1.14 0 .68-.16 1.22-.48 1.62-.3.38-.71.66-1.23.84-.52.16-1.11.24-1.77.24h-2.58V4.93h2.1c.88 0 1.56.18 2.04.54.48.36.72.9.72 1.62 0 .48-.11.89-.33 1.23-.22.32-.54.57-.96.75-.4.18-.89.27-1.47.27h-3.39v2.22zm20.311-.06c0-1.24.24-2.33.72-3.27.5-.96 1.19-1.71 2.07-2.25.9-.54 1.95-.81 3.15-.81 1.22 0 2.27.27 3.15.81.88.54 1.56 1.29 2.04 2.25.48.94.72 2.03.72 3.27 0 1.24-.25 2.34-.75 3.3-.48.94-1.17 1.68-2.07 2.22-.88.54-1.91.81-3.09.81-1.2 0-2.25-.27-3.15-.81a5.68 5.68 0 01-2.07-2.22c-.48-.96-.72-2.06-.72-3.3zm-5.37 0c0 1.62.27 3.11.81 4.47.56 1.36 1.34 2.54 2.34 3.54 1.02 1 2.22 1.78 3.6 2.34 1.38.54 2.9.81 4.56.81 1.64 0 3.15-.27 4.53-.81 1.38-.56 2.57-1.34 3.57-2.34 1.02-1 1.8-2.18 2.34-3.54.56-1.36.84-2.85.84-4.47 0-1.62-.28-3.1-.84-4.44-.56-1.34-1.35-2.5-2.37-3.48a10.45 10.45 0 00-3.6-2.25c-1.36-.54-2.85-.81-4.47-.81-1.6 0-3.09.27-4.47.81a10.45 10.45 0 00-3.6 2.25c-1.02.98-1.82 2.14-2.4 3.48-.56 1.34-.84 2.82-.84 4.44zm24.72 8.46c0 .76.27 1.41.81 1.95s1.21.81 2.01.81c.84 0 1.52-.27 2.04-.81s.78-1.19.78-1.95-.26-1.41-.78-1.95-1.2-.81-2.04-.81c-.8 0-1.47.27-2.01.81-.54.54-.81 1.19-.81 1.95zm12.189-5.34l-3.54 2.55c.48 1 1.15 1.92 2.01 2.76.86.84 1.87 1.51 3.03 2.01 1.18.48 2.45.72 3.81.72.98 0 1.93-.15 2.85-.45.94-.28 1.77-.7 2.49-1.26a5.99 5.99 0 001.74-2.07c.44-.84.66-1.79.66-2.85 0-.88-.14-1.66-.42-2.34-.28-.68-.67-1.28-1.17-1.8-.48-.52-1.04-.96-1.68-1.32-.64-.38-1.33-.71-2.07-.99-.98-.34-1.82-.66-2.52-.96-.68-.3-1.21-.63-1.59-.99-.36-.36-.54-.78-.54-1.26 0-.46.19-.84.57-1.14.38-.32.93-.48 1.65-.48.54 0 1.04.11 1.5.33.48.2.91.49 1.29.87.4.36.75.79 1.05 1.29l3.87-2.16c-.36-.72-.88-1.43-1.56-2.13s-1.54-1.28-2.58-1.74c-1.02-.46-2.23-.69-3.63-.69-1.36 0-2.6.24-3.72.72-1.1.46-1.98 1.14-2.64 2.04-.64.9-.96 1.97-.96 3.21 0 1.04.19 1.93.57 2.67.38.72.86 1.34 1.44 1.86.58.5 1.19.91 1.83 1.23.66.32 1.24.57 1.74.75 1.02.38 1.84.72 2.46 1.02.62.3 1.07.62 1.35.96.28.32.42.75.42 1.29 0 .64-.24 1.15-.72 1.53-.48.36-1.09.54-1.83.54-.7 0-1.37-.15-2.01-.45-.62-.3-1.2-.73-1.74-1.29a10 10 0 01-1.41-1.98zm20.76-3.12c0-1.3.29-2.41.87-3.33a5.75 5.75 0 012.28-2.1c.96-.48 2.01-.72 3.15-.72 1 0 1.88.13 2.64.39.76.24 1.44.58 2.04 1.02.6.42 1.13.87 1.59 1.35V2.65a10.45 10.45 0 00-2.76-1.56c-1-.38-2.27-.57-3.81-.57-1.68 0-3.23.26-4.65.78-1.42.52-2.64 1.27-3.66 2.25s-1.81 2.14-2.37 3.48c-.56 1.34-.84 2.83-.84 4.47 0 1.64.28 3.13.84 4.47.56 1.34 1.35 2.5 2.37 3.48s2.24 1.73 3.66 2.25 2.97.78 4.65.78c1.54 0 2.81-.19 3.81-.57 1-.38 1.92-.9 2.76-1.56v-5.46c-.46.48-.99.93-1.59 1.35-.6.42-1.28.76-2.04 1.02s-1.64.39-2.64.39c-1.14 0-2.19-.24-3.15-.72a5.75 5.75 0 01-2.28-2.1c-.58-.94-.87-2.05-.87-3.33zm18.125 1.71h15.9V8.65h-15.9v4.56zM151.488 1v21h5.07V1h-5.07zm-14.1 0v21h5.07V1h-5.07zm27.754 10.5c0-1.24.24-2.33.72-3.27.5-.96 1.19-1.71 2.07-2.25.9-.54 1.95-.81 3.15-.81 1.22 0 2.27.27 3.15.81.88.54 1.56 1.29 2.04 2.25.48.94.72 2.03.72 3.27 0 1.24-.25 2.34-.75 3.3-.48.94-1.17 1.68-2.07 2.22-.88.54-1.91.81-3.09.81-1.2 0-2.25-.27-3.15-.81a5.68 5.68 0 01-2.07-2.22c-.48-.96-.72-2.06-.72-3.3zm-5.37 0c0 1.62.27 3.11.81 4.47.56 1.36 1.34 2.54 2.34 3.54 1.02 1 2.22 1.78 3.6 2.34 1.38.54 2.9.81 4.56.81 1.64 0 3.15-.27 4.53-.81 1.38-.56 2.57-1.34 3.57-2.34 1.02-1 1.8-2.18 2.34-3.54.56-1.36.84-2.85.84-4.47 0-1.62-.28-3.1-.84-4.44-.56-1.34-1.35-2.5-2.37-3.48a10.45 10.45 0 00-3.6-2.25c-1.36-.54-2.85-.81-4.47-.81-1.6 0-3.09.27-4.47.81a10.45 10.45 0 00-3.6 2.25c-1.02.98-1.82 2.14-2.4 3.48-.56 1.34-.84 2.82-.84 4.44zm30.009 0c0-1.24.24-2.33.72-3.27.5-.96 1.19-1.71 2.07-2.25.9-.54 1.95-.81 3.15-.81 1.22 0 2.27.27 3.15.81.88.54 1.56 1.29 2.04 2.25.48.94.72 2.03.72 3.27 0 1.24-.25 2.34-.75 3.3-.48.94-1.17 1.68-2.07 2.22-.88.54-1.91.81-3.09.81-1.2 0-2.25-.27-3.15-.81a5.68 5.68 0 01-2.07-2.22c-.48-.96-.72-2.06-.72-3.3zm-5.37 0c0 1.62.27 3.11.81 4.47.56 1.36 1.34 2.54 2.34 3.54 1.02 1 2.22 1.78 3.6 2.34 1.38.54 2.9.81 4.56.81 1.64 0 3.15-.27 4.53-.81 1.38-.56 2.57-1.34 3.57-2.34 1.02-1 1.8-2.18 2.34-3.54.56-1.36.84-2.85.84-4.47 0-1.62-.28-3.1-.84-4.44-.56-1.34-1.35-2.5-2.37-3.48a10.45 10.45 0 00-3.6-2.25c-1.36-.54-2.85-.81-4.47-.81-1.6 0-3.09.27-4.47.81a10.45 10.45 0 00-3.6 2.25c-1.02.98-1.82 2.14-2.4 3.48-.56 1.34-.84 2.82-.84 4.44zM210.249 1v21h13.5v-4.35h-8.43V1h-5.07z"/></svg><svg viewBox="0 0 40 40" id="next-button" xmlns="http://www.w3.org/2000/svg"><path fill-rule="evenodd" clip-rule="evenodd" d="M36.667 20c0 9.2-7.484 16.667-16.667 16.667l-.466-.007c-8.985-.247-16.2-7.616-16.2-16.66C3.334 10.817 10.8 3.333 20 3.333c9.183 0 16.667 7.484 16.667 16.667zM16.7 13.333c-.483.5-.483 1.284.017 1.767l4.917 4.9-4.917 4.9c-.5.483-.5 1.283-.017 1.767.5.5 1.284.5 1.767 0l5.817-5.784a1.249 1.249 0 000-1.766l-5.817-5.784a1.173 1.173 0 00-.867-.366c-.333 0-.65.116-.9.366z"/></svg><svg viewBox="0 0 34 34" id="prev-button" xmlns="http://www.w3.org/2000/svg"><path fill-rule="evenodd" clip-rule="evenodd" d="M.333 17c0 9.2 7.483 16.667 16.667 16.667l.466-.007c8.985-.247 16.2-7.616 16.2-16.66C33.666 7.817 26.2.333 17 .333 7.816.333.333 7.817.333 17zM20.3 10.333c.483.5.483 1.284-.017 1.767L15.366 17l4.917 4.9c.5.483.5 1.283.017 1.767-.5.5-1.284.5-1.767 0l-5.817-5.784a1.249 1.249 0 010-1.766l5.817-5.784c.233-.25.55-.366.867-.366.333 0 .65.116.9.366z"/></svg></svg>